{"title":"Love Wedding Marriage (2011) DvdRip [Xvid] {1337x}-X","uid":6676906,"size":733992960,"categoryP":"video","categoryS":"movies","magnet":"?xt=urn:btih:667a2fe6ed544b9c1a1e4a19c9e99f9c8528b1cd&amp;dn=Love+Wedding+Marriage+%282011%29+DvdRip+%5BXvid%5D+%7B1337x%7D-X&amp;tr=udp%3A%2F%2Ftracker.openbittorrent.com%3A80&amp;tr=udp%3A%2F%2Fopen.demonii.com%3A1337&amp;tr=udp%3A%2F%2Ftracker.coppersurfer.tk%3A6969&amp;tr=udp%3A%2F%2Fexodus.desync.com%3A6969","seeders":0,"leechers":0,"uploader":"hiest","files":-1,"time":1316064063,"description":"Full Credits To MustangX @ 1337x\n\n##     ## ##     ##  ######  ########    ###    ##    ##  ######   ##     ## \n###   ### ##     ## ##    ##    ##      ## ##   ###   ## ##    ##   ##   ##  \n#### #### ##     ## ##          ##     ##   ##  ####  ## ##          ## ##   \n## ### ## ##     ##  ######     ##    ##     ## ## ## ## ##   ####    ###    \n##     ## ##     ##       ##    ##    ######### ##  #### ##    ##    ## ##   \n##     ## ##     ## ##    ##    ##    ##     ## ##   ### ##    ##   ##   ##  \n##     ##  #######   ######     ##    ##     ## ##    ##  ######   ##     ## \n\n Plot:\n A happy newlywed marriage counselor's views on wedded bliss get thrown for a \n loop when she finds out her parents are getting divorced.\n\n\n Video\n ID : 0\n Format : MPEG-4 Visual\n Format profile : Advanced Simple@L5\n Format settings, BVOP : Yes\n Format settings, QPel : No\n Format settings, GMC : No warppoints\n Format settings, Matrix : Default (H.263)\n Muxing mode : Packed bitstream\n Codec ID : XVID\n Codec ID/Hint : XviD\n Duration : 1h 30mn\n Bit rate : 969 Kbps\n Width : 720 pixels\n Height : 288 pixels\n Display aspect ratio : 2.500\n Frame rate : 23.976 fps\n Color space : YUV\n Chroma subsampling : 4:2:0\n Bit depth : 8 bits\n Scan type : Progressive\n Bits/(Pixel*Frame) : 0.195\n Stream size : 626 MiB (89%)\n Writing library : XviD 57\n\n Audio\n ID : 1\n Format : MPEG Audio\n Format version : Version 1\n Format profile : Layer 3\n Mode : Joint stereo\n Mode extension : MS Stereo\n Codec ID : 55\n Codec ID/Hint : MP3\n Duration : 1h 30mn\n Bit rate mode : Variable\n Bit rate : 101 Kbps\n Nominal bit rate : 112 Kbps\n Channel(s) : 2 channels\n Sampling rate : 48.0 KHz\n Stream size : 65.6 MiB (9%)\n Alignment : Aligned on interleaves\n Interleave, duration : 24 ms (0.58 video frame)\n Interleave, preload duration : 181 ms\n Writing library : LAME3.97 \n Encoding settings : -m j -V 4 -q 2 -lowpass 16 --abr 112\n\n\n IMDB\n &lt;a href=&quot; http://www.imdb.com/title/tt1436559/&quot; rel=&quot;nofollow&quot; target=&quot;_NEW&quot;&gt; http://www.imdb.com/title/tt1436559/&lt;/a&gt;\n\n Shout out to noir and all my friends @ 1337x.org and extratorrent\n\n\n\n ==================================                                    \n &lt;a href=&quot; http://thepiratebay.se/user/hiest&quot; rel=&quot;nofollow&quot; target=&quot;_NEW&quot;&gt; http://thepiratebay.se/user/hiest&lt;/a&gt;\n ==================================\n\n\n\nFull Credits To MustangX @ 1337x\n\n##     ## ##     ##  ######  ########    ###    ##    ##  ######   ##     ## \n###   ### ##     ## ##    ##    ##      ## ##   ###   ## ##    ##   ##   ##  \n#### #### ##     ## ##          ##     ##   ##  ####  ## ##          ## ##   \n## ### ## ##     ##  ######     ##    ##     ## ## ## ## ##   ####    ###    \n##     ## ##     ##       ##    ##    ######### ##  #### ##    ##    ## ##   \n##     ## ##     ## ##    ##    ##    ##     ## ##   ### ##    ##   ##   ##  \n##     ##  #######   ######     ##    ##     ## ##    ##  ######   ##     ## ","torrent":{"xt":"urn:btih:667a2fe6ed544b9c1a1e4a19c9e99f9c8528b1cd","amp;dn":"Love+Wedding+Marriage+%282011%29+DvdRip+%5BXvid%5D+%7B1337x%7D-X","amp;tr":["udp%3A%2F%2Ftracker.openbittorrent.com%3A80","udp%3A%2F%2Fopen.demonii.com%3A1337","udp%3A%2F%2Ftracker.coppersurfer.tk%3A6969","udp%3A%2F%2Fexodus.desync.com%3A6969"],"infoHash":"667a2fe6ed544b9c1a1e4a19c9e99f9c8528b1cd","infoHashBuffer":{"type":"Buffer","data":[102,122,47,230,237,84,75,156,26,30,74,25,201,233,159,156,133,40,177,205]},"announce":[],"urlList":[]}}